<?xml version="1.0" encoding="UTF-8"?>
<svg viewBox="0 0 706 704" version="1.1" xmlns="http://www.w3.org/2000/svg" width="40" height="40">
<path d="M0 0 C232.98 0 465.96 0 706 0 C706 232.32 706 464.64 706 704 C473.02 704 240.04 704 0 704 C0 471.68 0 239.36 0 0 Z " fill="#161E26" transform="translate(0,0)"/>
<path d="M0 0 C8.45215717 6.75526137 14.48582288 16.89229331 16.85546875 27.4453125 C16.93649058 30.11476525 16.88292189 32.77383244 16.85546875 35.4453125 C18.07744807 35.44162533 19.29942739 35.43793816 20.55843639 35.43413925 C49.55876715 35.34752794 78.55909295 35.28156052 107.55952243 35.24105118 C111.12814213 35.23604829 114.69676156 35.23087101 118.26538086 35.22558594 C118.97583562 35.2245367 119.68629039 35.22348745 120.41827408 35.22240642 C131.92535576 35.20499609 143.43235758 35.17345497 154.93939187 35.13670132 C166.74465058 35.0993093 178.54986745 35.07708034 190.35518295 35.06895852 C196.98691953 35.06396016 203.61850743 35.05143253 210.25018883 35.02239227 C216.48898914 34.99529315 222.72753322 34.98685647 228.9663868 34.99288177 C231.25896979 34.99177908 233.55156113 34.98379275 235.84409332 34.9684906 C238.96931131 34.94864933 242.09355624 34.95335242 245.21879578 34.96429443 C246.13027726 34.95264307 247.04175875 34.9409917 247.98086089 34.92898726 C252.14245365 34.96849096 254.2942025 35.09356215 257.89526081 37.35037613 C260.94352634 40.60815414 261.18902155 42.94200504 261.1484375 47.40625 C260.69291908 50.57665817 259.10231218 52.2645527 256.85546875 54.4453125 C253.97130992 55.88739191 251.43825347 55.53926137 248.23046875 55.5078125 C247.04195313 55.49878906 245.8534375 55.48976563 244.62890625 55.48046875 C243.25605469 55.46306641 243.25605469 55.46306641 241.85546875 55.4453125 C241.87641602 56.66637695 241.89736328 57.88744141 241.91894531 59.14550781 C241.99137034 63.67777774 242.03727763 68.20999657 242.07519531 72.74267578 C242.09530507 74.70402631 242.12259693 76.66531694 242.15722656 78.62646484 C242.20577296 81.44643945 242.22844361 84.26562115 242.24609375 87.0859375 C242.26673889 87.96211731 242.28738403 88.83829712 242.30865479 89.74102783 C242.31089086 95.81404569 242.31089086 95.81404569 240.01293945 98.99926758 C237.1487574 100.91898584 235.21864646 100.94648681 231.79296875 100.8828125 C230.75011719 100.88152344 229.70726562 100.88023437 228.6328125 100.87890625 C225.46565961 100.38445622 224.78587126 99.91417379 222.85546875 97.4453125 C222.4230957 95.45239258 222.4230957 95.45239258 222.34375 93.21484375 C222.29057617 92.01118164 222.29057617 92.01118164 222.23632812 90.78320312 C222.21376953 89.94982422 222.19121094 89.11644531 222.16796875 88.2578125 C222.13380859 87.41283203 222.09964844 86.56785156 222.06445312 85.69726562 C221.98205404 83.61374601 221.9170823 81.52955034 221.85546875 79.4453125 C219.04290594 79.41846938 216.23059634 79.39855062 213.41796875 79.3828125 C212.61552734 79.37443359 211.81308594 79.36605469 210.98632812 79.35742188 C208.94251654 79.3487982 206.89862973 79.393031 204.85546875 79.4453125 C202.50584981 81.79493144 203.44411341 88.55447304 203.33789062 91.91992188 C203.30373047 92.72107422 203.26957031 93.52222656 203.234375 94.34765625 C203.20931885 95.08491943 203.1842627 95.82218262 203.15844727 96.58178711 C202.85546875 98.4453125 202.85546875 98.4453125 200.85546875 100.4453125 C197.95703125 100.78125 197.95703125 100.78125 194.48046875 100.8203125 C193.33835937 100.84867187 192.19625 100.87703125 191.01953125 100.90625 C187.85546875 100.4453125 187.85546875 100.4453125 183.85546875 96.4453125 C183.85546875 82.9153125 183.85546875 69.3853125 183.85546875 55.4453125 C129.07546875 55.4453125 74.29546875 55.4453125 17.85546875 55.4453125 C16.86546875 59.4053125 15.87546875 63.3653125 14.85546875 67.4453125 C8.3020922 82.02657532 -1.64815155 90.53348 -16.14453125 96.4453125 C-16.83933594 96.73148437 -17.53414062 97.01765625 -18.25 97.3125 C-29.08151109 100.80345059 -42.73328311 99.19640435 -52.69140625 94.15625 C-66.91068479 86.09865883 -75.09500122 74.77405135 -79.828125 59.1953125 C-83.65036862 43.59001443 -81.39423438 27.42989961 -73.94140625 13.3359375 C-66.75686573 1.7781984 -56.27082739 -6.46102779 -43.45703125 -10.8046875 C-27.50349901 -14.22552287 -12.87039247 -9.33044846 0 0 Z " fill="#446F73" transform="translate(223.14453125,242.5546875)"/>
<path d="M0 0 C7.92 0 15.84 0 24 0 C24 14.19 24 28.38 24 43 C39.18 43 54.36 43 70 43 C70 29.14 70 15.28 70 1 C77.92 1 85.84 1 94 1 C94 36.97 94 72.94 94 110 C86.08 110 78.16 110 70 110 C70 94.82 70 79.64 70 64 C54.82 64 39.64 64 24 64 C24 79.18 24 94.36 24 110 C16.08 110 8.16 110 0 110 C0 73.7 0 37.4 0 0 Z " fill="#A7C2CB" transform="translate(142,375)"/>
<path d="M0 0 C6.56051607 4.72690541 11.81698037 10.44122945 14.1875 18.25 C14.1875 20.89 14.1875 23.53 14.1875 26.25 C6.5975 26.25 -0.9925 26.25 -8.8125 26.25 C-9.8025 23.94 -10.7925 21.63 -11.8125 19.25 C-14.32822852 16.32808615 -17.13517226 14.47577591 -20.8125 13.25 C-33.27721809 12.13144638 -33.27721809 12.13144638 -44.46484375 16.765625 C-47.27875678 19.86500747 -47.8036304 21.97060774 -47.9375 26.1875 C-47.52604994 28.59806066 -47.11922087 29.9062922 -45.484375 31.73828125 C-39.74801206 35.76620566 -32.80559975 37.03701607 -26.10644531 38.68017578 C5.11533986 46.43577887 5.11533986 46.43577887 13.1875 58.25 C18.02110656 66.58380441 18.31331941 75.73447885 16.00390625 84.98828125 C13.02885179 93.23017852 7.10024392 99.90749959 -0.76171875 103.65625 C-17.83838366 110.60817039 -35.3972263 111.40084902 -52.8125 105.25 C-62.07619439 100.89459679 -67.83692522 94.70522043 -72.6875 85.8125 C-73.8125 82.25 -73.8125 82.25 -74.8125 72.25 C-66.8925 72.25 -58.9725 72.25 -50.8125 72.25 C-49.8225 74.89 -48.8325 77.53 -47.8125 80.25 C-46.31118123 82.28789026 -46.31118123 82.28789026 -44.5 83.625 C-43.67048828 84.31722656 -43.67048828 84.31722656 -42.82421875 85.0234375 C-35.44939256 89.51993347 -26.31378138 89.24317915 -18.04296875 87.75 C-13.21684293 86.34137953 -10.52613419 84.65965555 -7.8125 80.25 C-6.26225536 77.14951072 -6.52257985 74.67105782 -6.8125 71.25 C-9.45910952 66.59196724 -12.91762834 64.93319769 -17.8125 63.25 C-21.85027704 62.17954487 -25.92295463 61.28235431 -30 60.375 C-44.5618837 56.99261433 -59.71162714 53.09829109 -68.8125 40.25 C-71.7556316 35.34717345 -72.35960028 31.51268522 -72.3125 25.9375 C-72.30718262 24.80973145 -72.30718262 24.80973145 -72.30175781 23.65917969 C-72.11706104 17.47317622 -70.67329133 13.15967684 -66.8125 8.25 C-66.19375 7.3425 -65.575 6.435 -64.9375 5.5 C-49.05027803 -11.32176444 -18.92327512 -11.48576898 0 0 Z " fill="#A8C3CC" transform="translate(443.8125,379.75)"/>
<path d="M0 0 C7.59 0 15.18 0 23 0 C23.33 14.19 23.66 28.38 24 43 C26.495625 40.36 28.99125 37.72 31.5625 35 C32.33408447 34.1853125 33.10566895 33.370625 33.90063477 32.53125 C37.78471529 28.4130456 41.57037702 24.23240971 45.27856445 19.95556641 C48.81086378 15.94284231 52.51441967 12.0866171 56.18945312 8.20507812 C57.07987305 7.25858398 57.07987305 7.25858398 57.98828125 6.29296875 C58.51977783 5.7311792 59.05127441 5.16938965 59.59887695 4.59057617 C61.2012489 2.84302434 61.2012489 2.84302434 63 0 C65.88916016 -0.34057617 65.88916016 -0.34057617 69.5390625 -0.29296875 C71.49199219 -0.2784668 71.49199219 -0.2784668 73.484375 -0.26367188 C74.86458923 -0.23860388 76.24479756 -0.21320902 77.625 -0.1875 C79.01300663 -0.17245517 80.40102867 -0.15876641 81.7890625 -0.14648438 C85.19309509 -0.1110257 88.59635622 -0.06160298 92 0 C91.60312988 0.46253174 91.20625977 0.92506348 90.79736328 1.40161133 C87.54000986 5.19728881 87.54000986 5.19728881 84.3046875 9.01171875 C80.23944065 13.7767212 75.86458744 18.17021761 71.41259766 22.56811523 C67.99697829 25.95742757 64.77192375 29.44177377 61.671875 33.125 C59.11077129 35.99726584 56.26081796 38.56299274 53.40625 41.140625 C51.76040175 42.86447991 51.76040175 42.86447991 52.24536133 44.86230469 C53.09252837 47.26210884 54.18975411 48.9912089 55.66796875 51.0625 C56.22419922 51.84882813 56.78042969 52.63515625 57.35351562 53.4453125 C57.95873047 54.28835938 58.56394531 55.13140625 59.1875 56 C60.47281538 57.81238716 61.75796715 59.62489035 63.04296875 61.4375 C63.70216309 62.36304688 64.36135742 63.28859375 65.04052734 64.2421875 C68.05045134 68.47843238 71.0248305 72.73931041 74 77 C77.63971577 82.20823778 81.28746583 87.4103923 84.95703125 92.59765625 C85.60220703 93.51224609 86.24738281 94.42683594 86.91210938 95.36914062 C88.15389339 97.12907913 89.39856463 98.88698495 90.64648438 100.64257812 C91.20271484 101.43212891 91.75894531 102.22167969 92.33203125 103.03515625 C92.82421143 103.7300415 93.3163916 104.42492676 93.82348633 105.14086914 C95 107 95 107 96 110 C72.7048862 112.81475608 72.7048862 112.81475608 65.63964844 108.58789062 C61.59818406 104.64159417 59.07755153 99.75395209 56.50878906 94.7734375 C53.75740396 89.71587524 50.35600209 85.08936163 47.0625 80.375 C45.84308663 78.57163996 44.62555528 76.7670055 43.41015625 74.9609375 C40.40411861 70.53773122 37.2577776 66.24056667 34 62 C28.78084523 66.25042554 24.11934541 70.40018378 23.08105469 77.28271484 C22.67769865 82.08520057 22.7649284 86.87423976 22.875 91.6875 C22.87694579 93.37174568 22.87437599 95.05600291 22.8671875 96.74023438 C22.8510886 100.83136662 22.92738333 104.90570106 23 109 C15.41 109 7.82 109 0 109 C0 73.03 0 37.06 0 0 Z " fill="#A9C4CD" transform="translate(478,376)"/>
<path d="M0 0 C7.92 0 15.84 0 24 0 C24.06810749 9.5542581 24.12300591 19.10835175 24.15543652 28.66279888 C24.17101113 33.1005686 24.19209707 37.53816187 24.22631836 41.97583008 C24.25920755 46.26821917 24.27691449 50.56043984 24.28463173 54.85294533 C24.29012273 56.48059549 24.30084322 58.10823772 24.31719017 59.73581505 C24.46176022 74.7434646 23.34463039 89.67892884 12.83203125 101.3359375 C1.06496703 112.02414508 -13.98076312 114.5121198 -29.33203125 114.24609375 C-41.3743029 113.43814581 -54.30094186 109.08298328 -62.54296875 99.8984375 C-71.96857406 87.6173539 -72.43946751 74.04099517 -72.29296875 59.203125 C-72.28736044 57.51634095 -72.28309619 55.82955195 -72.28010559 54.14276123 C-72.26875389 49.74346985 -72.23937235 45.34448452 -72.20599365 40.9453125 C-72.17508185 36.44014626 -72.16155554 31.93492965 -72.14648438 27.4296875 C-72.11449138 18.61963686 -72.0618049 9.80989198 -72 1 C-64.41 1 -56.82 1 -49 1 C-48.98541748 3.12872559 -48.97083496 5.25745117 -48.95581055 7.45068359 C-48.90527904 14.51552573 -48.8386522 21.58015173 -48.76428509 28.64478111 C-48.71972139 32.9244635 -48.6804352 37.20405377 -48.65356445 41.48388672 C-48.62739076 45.6208255 -48.58689117 49.75740706 -48.53681374 53.89412308 C-48.52023948 55.46556755 -48.50866681 57.03707367 -48.50238609 58.60859299 C-48.55163229 74.86211126 -48.55163229 74.86211126 -40.7109375 88.59375 C-34.12929996 94.0033151 -26.1405753 93.5829568 -18 93 C-12.59691769 92.05660468 -8.59480579 90.19196252 -5 86 C0.47773535 78.07373028 -0.39523569 68.47418438 -0.390625 59.27734375 C-0.37562504 57.5638321 -0.35889411 55.85033482 -0.34051514 54.13685608 C-0.29703287 49.65381158 -0.27688524 45.17096206 -0.26177979 40.68774414 C-0.24213934 36.10225995 -0.20017736 31.51698421 -0.16015625 26.93164062 C-0.08506133 17.95445639 -0.03671101 8.97742334 0 0 Z " fill="#A7C2CB" transform="translate(329,375)"/>
<path d="M0 0 C1.20068115 0.00303635 2.4013623 0.00607269 3.63842773 0.00920105 C6.91946972 0.02018411 10.20027652 0.04044183 13.48123169 0.06614542 C16.22475129 0.08675181 18.96829148 0.10169384 21.7118454 0.11690509 C28.18559444 0.15321233 34.65919191 0.20103382 41.1328125 0.25537109 C47.80269642 0.31109453 54.47243943 0.3445241 61.14250946 0.36747849 C66.87868794 0.38817061 72.61463871 0.42414934 78.3506546 0.47200286 C81.77246326 0.50030838 85.19404228 0.52255265 88.6159668 0.5294838 C92.43189872 0.54126096 96.24681041 0.57803186 100.0625 0.62109375 C101.75524048 0.61826134 101.75524048 0.61826134 103.48217773 0.6153717 C110.75476584 0.73254352 114.3772661 1.65117328 119.640625 6.76123047 C123.83298829 12.04475681 125.28386064 15.00430144 125.25830078 21.80322266 C125.25859283 22.45729599 125.25888489 23.11136932 125.25918579 23.78526306 C125.25779676 25.9388473 125.24225608 28.09208196 125.2265625 30.24560547 C125.22283084 31.74204316 125.21998459 33.2384833 125.21798706 34.73492432 C125.2103626 38.66736637 125.19072438 42.59965994 125.1685791 46.53204346 C125.14809506 50.54722078 125.13897988 54.56242217 125.12890625 58.57763672 C125.10747728 66.45141026 125.07230489 74.32503477 125.03125 82.19873047 C120.41125 82.19873047 115.79125 82.19873047 111.03125 82.19873047 C111.01143066 80.30598389 110.99161133 78.4132373 110.97119141 76.46313477 C110.90344589 70.21251685 110.8266726 63.96206096 110.74372292 57.71162701 C110.69375711 53.92163955 110.64742726 50.13168001 110.609375 46.34155273 C110.57252553 42.68450046 110.52616682 39.02768154 110.47318649 35.37082863 C110.45464067 33.97501528 110.43953337 32.5791519 110.42790604 31.18326378 C110.4110476 29.22957968 110.38087739 27.27602413 110.35009766 25.32250977 C110.33011215 23.65372017 110.33011215 23.65372017 110.3097229 21.95121765 C110.22652888 18.98450708 110.22652888 18.98450708 108.03125 16.19873047 C105.85353579 15.74643246 105.85353579 15.74643246 103.28649902 15.82450867 C102.28535568 15.81749435 101.28421234 15.81048004 100.25273132 15.80325317 C98.59912346 15.81471878 98.59912346 15.81471878 96.91210938 15.82641602 C95.75435501 15.82276535 94.59660065 15.81911469 93.40376282 15.81535339 C89.5606946 15.80721955 85.71804429 15.82088193 81.875 15.83544922 C79.21463424 15.83596748 76.55428455 15.83550363 73.8939209 15.8339386 C68.31187916 15.83305509 62.72995874 15.8441478 57.14794922 15.86254883 C50.68931392 15.8837174 44.23085639 15.8872267 37.77219343 15.88098687 C31.56570043 15.87529707 25.3592702 15.88093431 19.15278625 15.89216042 C16.50849155 15.89602074 13.86419146 15.89715721 11.21989441 15.89557457 C7.52995474 15.89520539 3.84028927 15.90778313 0.15039062 15.92407227 C-1.50321724 15.92035614 -1.50321724 15.92035614 -3.19023132 15.91656494 C-4.19137466 15.92364975 -5.19251801 15.93073456 -6.22399902 15.93803406 C-7.09710472 15.94008693 -7.97021042 15.9421398 -8.86977386 15.94425488 C-11.18754969 16.00628908 -11.18754969 16.00628908 -12.96875 18.19873047 C-13.30129247 20.99044135 -13.30129247 20.99044135 -13.28759766 24.30078125 C-13.30746735 25.58195831 -13.32733704 26.86313538 -13.34780884 28.18313599 C-13.35968617 29.58676989 -13.37134898 30.99040562 -13.3828125 32.39404297 C-13.40151692 33.82609178 -13.42108978 35.25812949 -13.4414978 36.69015503 C-13.49290206 40.46137964 -13.53248311 44.23264002 -13.56964111 48.00402832 C-13.609629 51.85157173 -13.66074504 55.6989653 -13.7109375 59.54638672 C-13.80779497 67.09707316 -13.89113971 74.64781717 -13.96875 82.19873047 C-18.91875 82.19873047 -23.86875 82.19873047 -28.96875 82.19873047 C-29.05936019 73.73155636 -29.13264303 65.26476341 -29.17599869 56.79723358 C-29.19681427 52.86480092 -29.22502007 48.93271908 -29.27050781 45.00048828 C-29.314183 41.20087773 -29.33793239 37.4016032 -29.34825897 33.60176086 C-29.35561174 32.1569541 -29.36996968 30.71216433 -29.39167023 29.26750183 C-29.52151061 20.25997633 -29.32597055 13.35179038 -23.2578125 6.17529297 C-22.70867187 5.72927734 -22.15953125 5.28326172 -21.59375 4.82373047 C-21.04976562 4.36224609 -20.50578125 3.90076172 -19.9453125 3.42529297 C-13.64825114 -0.48236962 -7.15380121 -0.06502237 0 0 Z " fill="#28484D" transform="translate(275.96875,183.80126953125)"/>
<path d="M0 0 C7.93431583 5.70362434 11.63884077 12.4267385 14.3203125 21.66796875 C14.8153125 23.15296875 14.8153125 23.15296875 15.3203125 24.66796875 C16.19506774 37.97572058 15.23451226 48.9938145 6.390625 59.65625 C0.99376451 64.90036916 -5.70699589 68.75133202 -13.3046875 68.98046875 C-21.60122626 68.85987952 -27.84834663 65.30511719 -33.82421875 59.7109375 C-41.51968755 51.23782133 -44.22739341 41.65493698 -43.92578125 30.37109375 C-42.96556913 19.82400187 -40.36753427 10.97866439 -32.5 3.6328125 C-22.84300036 -4.2846266 -11.21512074 -6.43697444 0 0 Z " fill="#171F26" transform="translate(205.6796875,254.33203125)"/>
<path d="M0 0 C4.95 0 9.9 0 15 0 C15.3125 7.3125 15.3125 7.3125 15.38793945 9.6027832 C15.5692565 13.39001199 15.5692565 13.39001199 17.23587894 16.69957924 C19.53297189 18.3928799 20.89703611 18.37715966 23.73765564 18.38095093 C25.19923347 18.39364014 25.19923347 18.39364014 26.69033813 18.40658569 C27.7579538 18.400513 28.82556946 18.39444031 29.92553711 18.38818359 C31.0509642 18.39344055 32.1763913 18.39869751 33.33592224 18.40411377 C37.06653611 18.41734762 40.79672533 18.40856279 44.52734375 18.3984375 C47.11422304 18.40045739 49.70110179 18.40336812 52.28797913 18.40713501 C57.714426 18.41156309 63.14071256 18.40539734 68.56713867 18.39111328 C74.83892069 18.37479452 81.11041002 18.38006872 87.38218492 18.3965925 C93.41622899 18.41185321 99.45012999 18.41022955 105.4841938 18.4014473 C108.05147912 18.39944322 110.61877188 18.40191179 113.18604851 18.40888596 C116.77259076 18.4164895 120.35856826 18.40491037 123.94506836 18.38818359 C125.54345551 18.39729263 125.54345551 18.39729263 127.1741333 18.40658569 C128.15133835 18.39812622 129.1285434 18.38966675 130.13536072 18.38095093 C130.98320098 18.37981985 131.83104124 18.37868877 132.70457363 18.37752342 C135.56908183 17.90640444 136.93530478 17.02365633 139 15 C139.45781902 12.31471536 139.69472304 10.00348286 139.75 7.3125 C139.77964844 6.61060547 139.80929687 5.90871094 139.83984375 5.18554688 C139.91037033 3.45764576 139.95747068 1.7288168 140 0 C144.62 0 149.24 0 154 0 C154.13615919 3.00155373 154.2346398 5.996821 154.3125 9 C154.3753418 10.25876953 154.3753418 10.25876953 154.43945312 11.54296875 C154.56362779 17.95038142 153.145125 22.07640938 149 27 C146.8671875 28.83984375 146.8671875 28.83984375 144.875 29.9375 C144.21242188 30.31777344 143.54984375 30.69804687 142.8671875 31.08984375 C139.47661329 32.74257134 136.77929235 33.12924912 133.06147766 33.14717102 C132.04238815 33.15432632 131.02329865 33.16148163 129.97332764 33.16885376 C128.29717377 33.17288712 128.29717377 33.17288712 126.5871582 33.17700195 C125.40963486 33.18357315 124.23211151 33.19014435 123.01890564 33.19691467 C119.11287078 33.21666313 115.20684935 33.22831684 111.30078125 33.23828125 C109.95407783 33.24232998 108.60737462 33.24644694 107.26067162 33.25063133 C100.93139216 33.26968036 94.60212433 33.2839105 88.27282172 33.2922433 C80.97779933 33.30200708 73.68308106 33.32830495 66.38816577 33.36874419 C60.7430138 33.39895881 55.09794872 33.41371732 49.45271748 33.41702431 C46.08435672 33.41936925 42.71632094 33.4282559 39.34804726 33.45348549 C35.58505704 33.47783438 31.82285935 33.47691892 28.05981445 33.4699707 C26.95249969 33.48278076 25.84518494 33.49559082 24.70431519 33.50878906 C17.15692338 33.45806482 11.93174483 32.25621339 5.9765625 27.32421875 C5.53054687 26.78410156 5.08453125 26.24398438 4.625 25.6875 C4.16351563 25.15511719 3.70203125 24.62273437 3.2265625 24.07421875 C-1.17251474 16.63501488 -0.14701295 8.30623174 0 0 Z " fill="#28474C" transform="translate(247,310)"/>
<path d="M0 0 C7.04279192 0.82165906 10.74081353 6.38416233 15.0390625 11.5703125 C16.71775394 13.52491137 16.71775394 13.52491137 18.9609375 15.0546875 C19.55132812 15.51101562 20.14171875 15.96734375 20.75 16.4375 C20.75 17.0975 20.75 17.7575 20.75 18.4375 C21.74 18.7675 22.73 19.0975 23.75 19.4375 C26.72531649 22.41281649 28.43962539 24.24773068 29.5 28.3125 C28.32062941 33.22654411 25.20250302 35.86129166 21.75 39.4375 C20.69711794 40.59587444 19.6479141 41.75759827 18.6015625 42.921875 C17.46401152 44.17750916 16.3259873 45.43271474 15.1875 46.6875 C14.37502808 47.59145508 14.37502808 47.59145508 13.54614258 48.51367188 C10.21877114 52.12869344 7.04369874 55.01479848 2.75 57.4375 C-0.82503434 57.4375 -2.48737994 57.10171747 -5.1875 54.75 C-6.68144459 51.49847353 -6.23911956 49.86169779 -5.25 46.4375 C-3.38512384 44.42470987 -1.66094605 42.78291256 0.4375 41.0625 C5.23558716 36.92354544 9.26201323 32.77656747 12.75 27.4375 C12.16049561 27.178479 11.57099121 26.91945801 10.96362305 26.65258789 C8.58572981 25.34732985 7.15698762 23.99195081 5.33203125 21.99609375 C4.71779297 21.33029297 4.10355469 20.66449219 3.47070312 19.97851562 C2.84099609 19.28435547 2.21128906 18.59019531 1.5625 17.875 C0.92119141 17.17697266 0.27988281 16.47894531 -0.38085938 15.75976562 C-1.56151839 14.47438079 -2.73975179 13.18676087 -3.91479492 11.89624023 C-4.67796605 11.06245938 -5.45074388 10.23675612 -6.25 9.4375 C-5.45884956 0.73484513 -5.45884956 0.73484513 0 0 Z " fill="#457174" transform="translate(285.25,214.5625)"/>
<path d="M0 0 C0.71353638 0.00202423 1.42707275 0.00404846 2.16223145 0.00613403 C2.89091431 0.00517731 3.61959717 0.00422058 4.37036133 0.00323486 C5.91377855 0.00255318 7.45719861 0.00440666 9.00061035 0.00857544 C11.37095544 0.01392391 13.74111104 0.00863011 16.1114502 0.00222778 C17.60754437 0.00288857 19.10363842 0.00416973 20.59973145 0.00613403 C21.31326782 0.0041098 22.0268042 0.00208557 22.76196289 0 C27.76602953 0.02399462 27.76602953 0.02399462 28.88098145 1.13894653 C29.06848145 4.57644653 29.06848145 4.57644653 28.88098145 8.13894653 C25.43994579 11.57998219 20.48046449 10.44260141 15.83215332 10.46121216 C15.11213135 10.45903687 14.39210938 10.45686157 13.65026855 10.45462036 C11.45518224 10.45146336 9.26144759 10.47490414 7.06652832 10.50027466 C5.67264981 10.50254797 4.27876768 10.503251 2.8848877 10.50222778 C1.61459717 10.50520874 0.34430664 10.5081897 -0.96447754 10.51126099 C-4.11901855 10.13894653 -4.11901855 10.13894653 -6.0723877 8.81155396 C-7.11901855 7.13894653 -7.11901855 7.13894653 -6.86901855 4.01394653 C-5.67119116 -0.57772516 -4.50318283 0.02159287 0 0 Z " fill="#467276" transform="translate(332.1190185546875,255.86105346679688)"/>
<path d="M0 0 C0.99 0.66 1.98 1.32 3 2 C3 2.66 3 3.32 3 4 C-6.24 4 -15.48 4 -25 4 C-25 3.34 -25 2.68 -25 2 C-16.75 2 -8.5 2 0 2 C0 1.34 0 0.68 0 0 Z " fill="#98AEB7" transform="translate(571,482)"/>
</svg>
